<svg width="65" height="65" viewBox="0 0 65 65" fill="none" xmlns="http://www.w3.org/2000/svg">
<path d="M27.8325 1.17255C24.3242 3.51765 24.3242 3.46667 24.4259 26.2549L24.5784 46.6471L25.9512 46.8C27.019 46.953 28.3409 46.2393 31.3916 43.8942L35.4592 40.7844H47.306C60.5765 40.7844 61.6442 40.5295 63.8306 37.2667C65 35.5844 65 35.2785 65 20.4432C65 6.27059 64.9492 5.25099 63.9831 3.67059C63.4238 2.75294 62.2544 1.58039 61.3392 1.01961C59.763 0.0509805 58.7461 0 44.6113 0C29.8154 0 29.5104 0 27.8325 1.17255ZM58.5427 4.63922C60.729 5.65883 60.9324 6.93334 60.9324 20.6471V33.5961L58.4919 36.451L33.1712 36.9608L30.934 38.6432L28.646 40.3255L28.4935 24.8785C28.4426 16.3647 28.4935 8.71766 28.646 7.80001C28.7986 6.88236 29.5104 5.70981 30.2731 5.09804C31.4933 4.12942 32.256 4.07844 44.4587 4.07844C52.7973 4.07844 57.78 4.28236 58.5427 4.63922Z" fill="white"/>
<path d="M32.8153 10.5018C32.256 11.1135 32.4085 12.9998 33.0695 13.6626C33.7813 14.3763 55.1361 14.5292 56.2547 13.8155C56.6615 13.5606 56.8649 12.7449 56.7632 11.9292L56.6106 10.4508L44.8655 10.2979C38.4082 10.2469 33.0187 10.3488 32.8153 10.5018Z" fill="white"/>
<path d="M32.8153 18.6587C32.2052 19.2705 32.4085 21.2587 33.1712 21.8705C33.6288 22.2783 37.2896 22.4313 45.2214 22.3293L56.6106 22.1764V18.6077L44.8655 18.4548C38.4082 18.4038 33.0187 18.5058 32.8153 18.6587Z" fill="white"/>
<path d="M32.8153 26.8156C32.2052 27.4273 32.4085 29.4156 33.1712 30.0273C33.6288 30.4352 35.9677 30.5881 40.1369 30.4862L46.4417 30.3332V26.7646L39.781 26.6117C36.171 26.5607 33.0187 26.6626 32.8153 26.8156Z" fill="white"/>
<path d="M7.69795 31.4039C3.93544 33.2902 1.9525 36.5019 1.9525 40.7843C1.9525 43.6902 2.86771 46.1882 4.39305 47.5647L5.40994 48.5333L3.427 50.5216C0.528849 53.4274 -0.132133 55.4667 0.0204015 60.6667L0.172936 65H24.07L24.2225 61.2274C24.4259 56.3843 23.3581 53.2235 20.7142 50.5725C18.9346 48.7372 18.833 48.4823 19.5956 47.8706C20.9684 46.698 22.2904 43.2313 22.2904 40.7843C22.2904 38.1333 20.9176 34.9215 19.1889 33.2902C16.3416 30.6902 10.952 29.8235 7.69795 31.4039ZM14.4095 35.4823C17.0534 36.7058 18.0194 38.6941 17.8161 42.1608C17.6635 43.7412 14.9179 46.2902 12.935 46.698C9.78259 47.2588 6.02008 44.047 6.02008 40.7843C6.02008 38.898 7.69795 36.5019 9.63005 35.5333C11.7655 34.4627 12.3248 34.4627 14.4095 35.4823ZM15.6806 52.2549C18.1211 53.5294 20.1549 56.9961 20.2566 60.0039C20.2566 61.1765 20.2058 61.1765 12.1214 61.1765H3.98629V59.5451C3.98629 57.3529 5.76586 53.8353 7.44373 52.7137C10.0368 50.9804 12.8333 50.8274 15.6806 52.2549Z" fill="white"/>
</svg>
