<svg width="157" height="109" viewBox="0 0 157 109" fill="none" xmlns="http://www.w3.org/2000/svg">
<path d="M74.6269 3.82909C69.3373 4.9856 59.033 9.88377 54.0183 13.6254C45.7749 19.7481 38.2871 30.4289 36.2949 38.8646C34.028 48.3888 34.7836 60.7703 38.2871 71.1789C40.554 77.8458 42.4775 81.4514 45.7062 85.1251L47.8357 87.5061L47.6983 68.1175C47.6296 48.729 47.6296 48.729 49.4844 43.3546C54.4991 28.7281 65.4904 19.8162 81.9772 17.095C91.045 15.5983 102.448 18.9318 108.974 24.9865L112.134 27.9117L116.943 23.1496L121.683 18.3875L118.935 15.9384C113.852 11.4485 105.196 6.61832 97.9832 4.16924C94.205 2.87667 79.8477 2.67258 74.6269 3.82909Z" fill="white"/>
<path d="M109.12 84.0068C103.212 88.5629 94.1796 91.9305 87.796 91.9305H85.0117V98.9297V105.929L88.611 105.467C96.6923 104.476 101.786 103.024 108.305 99.9862C114.417 97.1469 121.683 92.0625 121.683 90.6759C121.683 90.0156 113.534 81.3656 112.991 81.3656C112.719 81.3656 111.021 82.5541 109.12 84.0068Z" fill="white"/>
<path d="M75.9473 30.2383C71.6876 31.7419 64.7484 38.9867 62.5499 44.2494C60.7636 48.4868 60.5575 51.289 60.2826 74.5952L60.0078 97.9697L62.2751 99.6784C65.4355 102.002 68.2524 103.369 71.2754 103.916L73.8175 104.394V85.8724V67.3505H86.5279H99.2383V61.1993V55.0481H85.8408H72.5121L73.474 51.7675C74.161 49.6487 75.3977 47.6667 77.3901 45.753C80.0696 43.2242 80.688 42.9508 84.2606 42.8141C86.5966 42.7457 89.1387 43.0875 90.4441 43.6342C95.3221 45.8213 95.116 45.8897 99.7879 40.9004C102.467 38.0298 103.773 36.1845 103.223 35.9794C102.742 35.8427 102.193 35.501 101.986 35.2276C101.368 34.4758 94.9099 31.1952 91.7495 30.1016C87.9707 28.803 79.8635 28.8714 75.9473 30.2383Z" fill="white"/>
</svg>
